<?xml version="1.0" standalone="no"?>
<!DOCTYPE svg PUBLIC "-//W3C//DTD SVG 20010904//EN"
 "http://www.w3.org/TR/2001/REC-SVG-20010904/DTD/svg10.dtd">
<svg version="1.0" xmlns="http://www.w3.org/2000/svg"
 width="294.000000pt" height="294.000000pt" viewBox="0 0 294.000000 294.000000"
 preserveAspectRatio="xMidYMid meet">

<g transform="translate(0.000000,294.000000) scale(0.100000,-0.100000)"
fill="#000000" stroke="none">
<path d="M0 1470 l0 -1470 533 1 c292 1 523 3 512 6 -11 2 -49 15 -85 27 -36
13 -84 29 -107 36 -49 15 -56 35 -15 43 15 3 65 13 112 22 47 9 99 20 115 25
17 5 65 12 108 15 43 4 119 17 170 30 91 23 92 23 123 4 31 -19 90 -27 80 -10
-3 4 -20 11 -38 15 -45 9 -25 23 52 36 128 21 215 45 218 60 3 22 -53 56 -133
81 -38 11 -75 25 -81 30 -6 5 -31 12 -56 15 -43 6 -45 5 -58 -25 -14 -35 -35
-42 -27 -9 7 26 -18 58 -45 58 -11 0 -17 4 -14 9 7 11 64 19 171 26 44 3 100
8 125 11 53 6 70 -7 90 -71 10 -33 47 -122 56 -133 3 -4 140 24 151 31 5 4 38
9 74 13 35 3 80 13 99 21 42 17 99 9 106 -15 3 -9 9 -24 13 -32 11 -21 -9 -60
-31 -60 -10 0 -18 -4 -18 -10 0 -14 36 -12 52 3 15 15 68 21 68 7 0 -5 -4 -12
-10 -15 -20 -13 -10 -35 16 -35 17 0 28 -6 31 -20 6 -23 63 -56 63 -37 0 7 5
4 11 -6 6 -10 8 -25 5 -33 -4 -10 3 -14 29 -14 29 0 36 -4 41 -27 9 -38 22
-52 42 -46 10 2 38 -3 62 -11 33 -11 85 -16 188 -16 l142 0 0 916 c0 831 -1
916 -16 910 -9 -3 -73 -6 -144 -6 -107 0 -131 -3 -149 -17 -16 -14 -36 -72
-80 -238 -32 -121 -70 -260 -84 -310 -14 -49 -41 -148 -59 -220 l-33 -130 -60
3 c-33 2 -61 5 -62 6 -1 1 -6 84 -9 184 -6 160 -9 182 -23 179 -9 -2 -14 -10
-11 -18 2 -8 6 -88 8 -178 l4 -164 -32 7 c-18 3 -43 6 -56 6 -15 0 -24 6 -24
15 0 8 -5 15 -11 15 -5 0 -7 -4 -4 -10 3 -5 2 -10 -4 -10 -7 0 -10 40 -10 108
0 59 -2 127 -4 152 -2 25 2 59 9 76 11 28 17 32 64 36 88 9 88 9 80 251 -5
143 -11 212 -20 220 -9 9 -11 3 -6 -28 11 -74 12 -393 1 -404 -6 -6 -37 -13
-70 -15 l-60 -5 0 107 c0 59 -4 154 -9 212 -7 85 -6 112 6 140 15 35 16 35 69
34 30 -1 60 2 67 8 9 8 12 66 12 229 0 121 -3 219 -7 219 -5 0 -9 -95 -11
-212 -1 -116 -4 -213 -5 -215 -2 -2 -33 -4 -68 -5 l-64 -3 -3 225 c-3 269 -5
262 89 264 l64 1 3 115 c1 63 -2 153 -7 200 -8 77 -9 67 -8 -95 0 -100 -2
-186 -6 -192 -4 -6 -35 -11 -70 -12 l-64 -1 -6 143 c-12 257 -10 303 15 327
23 21 49 24 83 11 36 -14 55 8 53 64 l-2 50 -3 -48 -4 -47 -67 5 c-71 6 -76 8
-78 33 -3 46 -5 52 -20 52 -15 0 -16 -30 -11 -317 3 -175 2 -289 -3 -253 -4
36 -8 151 -9 256 0 105 -4 219 -7 253 -6 57 -9 61 -32 61 l-25 0 6 -202 c4
-112 10 -560 14 -995 l6 -793 -40 0 -41 0 -6 273 c-3 149 -10 506 -16 792 -6
286 -13 611 -17 723 -6 188 -7 202 -25 202 -17 0 -18 -10 -13 -227 11 -458 25
-1314 25 -1531 l0 -223 -22 3 c-23 3 -23 6 -30 188 -3 102 -11 469 -17 815 -6
347 -14 708 -18 803 l-6 172 -67 0 -66 0 3 -207 c1 -115 5 -291 7 -393 14
-571 18 -1330 8 -1376 -6 -27 -14 -69 -17 -93 -3 -25 -10 -48 -15 -51 -6 -4
-8 -14 -4 -23 3 -10 1 -17 -6 -17 -6 0 -10 -11 -8 -27 3 -26 7 -28 53 -33 46
-5 43 -6 -39 -13 -57 -5 -93 -4 -100 3 -5 5 -10 32 -10 60 -1 27 -2 50 -4 50
-13 0 -33 -34 -28 -47 4 -9 2 -19 -3 -22 -17 -11 -21 -62 -5 -78 8 -8 12 -19
9 -24 -4 -5 2 -9 12 -9 12 0 19 -8 20 -20 2 -25 -19 -22 -79 9 -34 19 -51 22
-74 16 -29 -8 -29 -9 -4 -13 13 -2 33 -10 44 -18 20 -14 20 -14 0 -14 -11 0
-26 -6 -33 -13 -11 -10 -12 -9 -6 2 6 11 4 13 -8 8 -9 -3 -17 -2 -19 2 -5 13
-48 24 -48 12 0 -6 6 -11 13 -12 6 0 3 -4 -8 -8 -11 -5 -24 -6 -30 -3 -5 3
-19 6 -30 6 -11 1 -20 6 -20 11 0 6 4 9 9 7 19 -6 46 11 46 29 0 16 32 92 45
107 2 2 17 5 35 7 37 5 63 23 53 38 -3 5 -1 7 4 4 6 -4 14 1 17 10 5 12 9 14
18 5 17 -17 33 -15 18 3 -10 12 -8 21 10 50 12 20 20 39 16 42 -3 3 2 12 12
20 12 10 12 13 2 8 -11 -4 -10 -2 2 6 14 12 14 15 -10 33 -30 24 -52 29 -72
16 -12 -8 -13 -13 -3 -29 12 -19 11 -19 -17 -9 -17 5 -30 16 -30 24 0 8 -5 14
-11 14 -5 0 -7 5 -4 10 4 6 16 8 27 4 15 -5 19 -3 13 7 -5 8 -5 11 0 7 4 -4
15 -3 25 2 12 6 23 5 36 -4 13 -10 24 -11 36 -5 14 7 16 5 13 -11 -2 -11 0
-22 6 -25 5 -4 9 8 9 24 0 17 -3 31 -7 31 -5 0 -10 267 -12 593 -2 325 -5 637
-6 692 -1 55 -3 218 -4 363 l-1 262 -730 0 -730 0 0 -1470z m1091 1144 c10
-12 10 -31 3 -84 -5 -38 -6 -79 -2 -90 9 -25 -2 -26 -30 -1 -25 21 -28 39 -8
47 28 11 39 120 14 135 -8 5 -9 9 -2 9 6 0 17 -7 25 -16z m118 -152 c-12 -65
-34 -98 -45 -67 -6 15 44 140 53 132 1 -2 -2 -31 -8 -65z m818 -479 c-1 -60
-3 -11 -3 107 0 118 2 167 3 108 2 -60 2 -156 0 -215z m-752 258 c19 -34 22
-53 18 -95 -4 -41 -1 -61 16 -95 23 -45 25 -82 3 -89 -7 -2 -12 0 -11 5 4 24
-2 44 -13 40 -16 -5 -11 -39 8 -50 28 -16 -52 -106 -94 -107 -20 0 -22 -4 -16
-22 3 -13 10 -27 14 -33 4 -5 11 -36 14 -67 5 -38 13 -61 24 -68 9 -5 14 -10
10 -10 -4 0 4 -17 18 -37 13 -20 27 -47 30 -60 4 -13 11 -23 17 -23 6 0 8 -3
4 -6 -3 -4 1 -20 9 -36 17 -32 22 -50 33 -113 4 -23 11 -46 15 -53 4 -7 3 -12
-3 -12 -5 0 -8 -11 -6 -25 1 -14 -2 -25 -6 -25 -16 0 -49 -39 -39 -45 6 -4 -7
-23 -29 -43 -43 -41 -66 -81 -74 -127 -3 -17 -17 -79 -32 -140 -14 -60 -32
-144 -40 -185 -17 -93 -31 -131 -47 -128 -7 2 -12 -3 -10 -9 3 -18 -40 -16
-64 1 -19 14 -19 14 1 13 15 -2 20 4 21 23 1 14 6 37 12 52 6 15 8 29 3 32 -9
6 -7 74 6 141 5 28 9 94 9 147 -1 54 2 98 7 98 4 0 7 5 7 10 0 6 -7 10 -16 10
-14 0 -14 3 -3 16 10 13 10 19 0 36 -10 16 -10 23 4 38 13 15 14 18 2 23 -18
7 -16 45 3 57 12 8 12 10 -2 15 -23 9 -33 36 -10 28 14 -5 15 -3 5 8 -7 7 -13
23 -13 36 0 13 -4 23 -10 23 -5 0 -10 6 -10 14 0 7 -14 19 -30 26 -40 17 -43
23 -30 70 6 22 7 46 3 53 -11 18 -13 77 -3 77 5 0 7 -8 3 -17 -5 -14 -3 -15 7
-6 10 9 8 17 -8 40 -11 15 -22 39 -23 53 -3 21 1 26 24 28 15 2 27 9 27 17 0
8 9 17 21 20 11 4 28 23 37 43 21 46 29 52 72 52 26 0 42 8 63 29 30 33 36 51
10 30 -17 -13 -17 -12 -4 4 9 12 22 16 35 13 21 -5 21 -5 2 9 -11 8 -26 15
-34 15 -10 0 -13 9 -10 30 3 18 0 31 -8 34 -7 3 -21 17 -30 32 -17 25 -17 27
-1 39 20 14 22 36 5 53 -6 6 -9 14 -6 18 4 3 12 -5 19 -18 13 -24 38 -47 52
-48 5 0 5 4 2 10 -3 5 -8 24 -10 42 -2 18 -7 47 -10 63 -6 29 -6 29 10 10 16
-19 17 -18 13 23 -4 52 7 50 37 -7z m-85 -286 c0 -2 -10 -9 -22 -15 -22 -11
-22 -10 -4 4 21 17 26 19 26 11z m227 -741 c-3 -3 -12 -4 -19 -1 -8 3 -5 6 6
6 11 1 17 -2 13 -5z m44 -71 c0 -10 2 -28 5 -40 4 -26 -26 -40 -53 -24 -14 8
-15 10 -3 11 13 0 13 1 0 10 -9 6 -11 10 -3 10 7 0 10 7 7 15 -4 8 -12 15 -20
15 -33 0 -10 15 26 18 32 2 40 -1 41 -15z m389 -457 c278 -35 426 -58 434 -66
23 -23 -18 -47 -49 -28 -6 3 -30 6 -55 6 -25 0 -76 5 -115 12 -73 12 -315 75
-350 91 l-20 9 20 -5 c11 -2 72 -11 135 -19z m-1365 -6 c3 -5 -1 -10 -10 -10
-9 0 -13 5 -10 10 3 6 8 10 10 10 2 0 7 -4 10 -10z m16 -56 c17 -8 28 -21 26
-27 -5 -16 -37 -22 -37 -6 0 6 -10 20 -22 30 -26 23 -8 25 33 3z m1519 -86 c0
-9 2 -10 8 -2 4 7 28 10 62 8 115 -7 161 -12 167 -17 2 -3 -1 -31 -8 -62 l-13
-57 -70 7 c-39 4 -103 18 -141 31 -71 25 -71 25 -67 59 4 33 7 35 55 44 4 0 7
-5 7 -11z m-704 -163 c-16 -12 -17 -15 -4 -15 10 0 21 -14 28 -36 11 -31 10
-37 -6 -49 -18 -13 -109 -35 -146 -35 -23 0 -24 37 -2 83 14 28 25 36 73 49
72 20 80 21 57 3z m-176 -39 c0 -5 -130 -33 -195 -41 -80 -11 -46 4 56 24 95
19 139 24 139 17z m0 -46 c0 -5 -2 -10 -4 -10 -3 0 -8 5 -11 10 -3 6 -1 10 4
10 6 0 11 -4 11 -10z m-310 -10 c0 -5 -8 -10 -17 -10 -15 0 -16 2 -3 10 19 12
20 12 20 0z m34 -1 c-4 -8 8 -10 42 -6 27 2 74 7 104 10 l55 5 -50 -15 c-27
-8 -59 -16 -70 -17 -11 -1 -27 -5 -35 -8 -8 -4 -41 -9 -74 -12 -32 -4 -68 -12
-80 -18 -24 -14 -66 -18 -66 -6 0 4 7 8 16 8 25 0 154 41 153 48 -2 13 1 22 7
22 3 0 2 -5 -2 -11z m178 -46 c-12 -2 -20 -8 -17 -13 3 -4 -4 -6 -15 -3 -11 3
-26 0 -33 -6 -8 -6 -16 -8 -19 -5 -4 3 -29 -1 -56 -10 -41 -12 -51 -12 -56 -1
-3 9 7 15 32 19 20 3 57 9 82 14 25 5 59 9 75 9 22 0 24 -1 7 -4z m-212 -43
c0 -5 -12 -10 -27 -9 -25 0 -26 1 -8 9 27 12 35 12 35 0z"/>
<path d="M1238 1963 c7 -3 16 -2 19 1 4 3 -2 6 -13 5 -11 0 -14 -3 -6 -6z"/>
<path d="M878 253 c7 -3 16 -2 19 1 4 3 -2 6 -13 5 -11 0 -14 -3 -6 -6z"/>
<path d="M2198 2765 c2 -14 6 -25 8 -25 2 0 4 11 4 25 0 14 -4 25 -9 25 -4 0
-6 -11 -3 -25z"/>
<path d="M2106 334 c-3 -8 6 -15 25 -19 34 -8 30 -25 -6 -25 -13 0 -27 -5 -30
-10 -10 -15 26 -25 44 -12 9 7 26 16 37 21 22 10 40 41 24 41 -6 0 -11 0 -12
0 -2 1 -20 5 -40 9 -27 6 -38 5 -42 -5z"/>
<path d="M2008 293 c7 -3 16 -2 19 1 4 3 -2 6 -13 5 -11 0 -14 -3 -6 -6z"/>
<path d="M1598 173 c6 -2 18 -2 25 0 6 3 1 5 -13 5 -14 0 -19 -2 -12 -5z"/>
<path d="M1935 100 c-4 -6 -3 -10 2 -8 13 3 77 -13 89 -23 6 -5 31 -10 55 -12
25 -2 53 -9 64 -14 32 -17 112 -28 99 -13 -11 11 -132 40 -170 40 -11 0 -34 6
-50 14 -43 20 -82 27 -89 16z"/>
<path d="M2260 20 c0 -5 10 -10 23 -10 18 0 19 2 7 10 -19 13 -30 13 -30 0z"/>
</g>
</svg>
